<?xml version="1.0" encoding="utf-8"?>
<!-- Generator: Adobe Illustrator 25.3.0, SVG Export Plug-In . SVG Version: 6.00 Build 0)  -->
<svg version="1.1" id="Calque_1" xmlns="http://www.w3.org/2000/svg" xmlns:xlink="http://www.w3.org/1999/xlink" x="0px" y="0px"
	 viewBox="0 0 11 9" style="enable-background:new 0 0 11 9;" xml:space="preserve">
<style type="text/css">
	.st0{fill:#FFFFFF;}
</style>
<path class="st0" d="M0,8.5C0,8.2,0.2,8,0.5,8h10C10.8,8,11,8.2,11,8.5S10.8,9,10.5,9h-10C0.2,9,0,8.8,0,8.5z M0,4.5
	C0,4.2,0.2,4,0.5,4h10C10.8,4,11,4.2,11,4.5C11,4.8,10.8,5,10.5,5h-10C0.2,5,0,4.8,0,4.5z M0,0.5C0,0.2,0.2,0,0.5,0h10
	C10.8,0,11,0.2,11,0.5S10.8,1,10.5,1h-10C0.2,1,0,0.8,0,0.5z"/>
</svg>
